<svg width="24" height="23" viewBox="0 0 24 23" fill="none" xmlns="http://www.w3.org/2000/svg">
<path d="M14.9018 2.34902C14.9018 2.10821 14.8992 1.90346 14.9018 1.69742C14.916 0.758649 15.641 0.0181945 16.581 0.00789256C16.9004 0.00402932 17.2326 0.010468 17.5352 0.0954593C18.2384 0.291197 18.6942 0.917042 18.7277 1.64719C18.7316 1.73862 18.738 1.83134 18.729 1.92277C18.7135 2.08503 18.7818 2.13396 18.9402 2.13139C19.6072 2.12495 20.2743 2.12752 20.9413 2.12881C22.1325 2.13139 22.9786 2.9607 22.9811 4.14929C22.9863 6.67198 22.9824 9.19468 22.9837 11.7174C22.9837 11.9092 22.9592 12.0857 22.7712 12.1926C22.4918 12.3522 22.1595 12.1745 22.1377 11.841C22.1222 11.6041 22.1325 11.3658 22.1312 11.1276C22.1312 10.2146 22.1248 9.30285 22.1364 8.38984C22.1389 8.16577 22.0926 8.08464 21.8479 8.08979C21.1049 8.10782 20.3606 8.09881 19.6162 8.09365C19.3342 8.09108 19.1514 7.90822 19.1565 7.65711C19.1617 7.41501 19.3394 7.25018 19.6124 7.23859C19.6819 7.23602 19.7502 7.23859 19.8197 7.23859C20.5177 7.23859 21.2156 7.23344 21.9136 7.24245C22.0849 7.24503 22.1377 7.18966 22.1364 7.01839C22.1299 6.05258 22.1389 5.08677 22.1299 4.11967C22.1235 3.4436 21.6522 2.98903 20.9735 2.98645C20.2382 2.98388 19.5042 2.98645 18.7303 2.98645C18.7303 3.2865 18.7354 3.56722 18.7303 3.84795C18.7122 4.64121 18.219 5.30697 17.4554 5.47567C16.9158 5.59543 16.3544 5.62118 15.8367 5.35333C15.2431 5.04556 14.9288 4.54849 14.9044 3.87628C14.8967 3.66381 14.9044 3.45133 14.9044 3.22211C14.8039 3.21567 14.7292 3.20794 14.6546 3.20794C12.553 3.20794 10.4514 3.20923 8.35104 3.20279C8.15401 3.20279 8.07932 3.24786 8.08576 3.45777C8.09478 3.70888 8.09478 3.969 8.04455 4.21239C7.89003 4.9567 7.25903 5.49369 6.49926 5.52589C6.17217 5.54005 5.83221 5.54392 5.518 5.46923C4.77368 5.29409 4.28047 4.63863 4.26502 3.875C4.25987 3.58525 4.26502 3.2968 4.26502 2.99933C4.1723 2.99289 4.11306 2.98516 4.05254 2.98516C3.36231 2.98516 2.67207 2.9813 1.98184 2.98516C1.35342 2.98903 0.87438 3.43845 0.866654 4.06043C0.853776 5.05715 0.864078 6.05386 0.858927 7.05058C0.858927 7.18837 0.901423 7.25018 1.04308 7.2373C1.11905 7.23086 1.19632 7.2373 1.27358 7.2373C6.30481 7.2373 11.336 7.2373 16.3673 7.2373C16.4587 7.2373 16.5527 7.23215 16.6428 7.24245C16.8669 7.26692 17.0279 7.44206 17.033 7.65582C17.0382 7.86701 16.8824 8.05245 16.6609 8.08593C16.5707 8.10009 16.4767 8.09365 16.3853 8.09365C11.3309 8.09365 6.27777 8.09365 1.22336 8.09365H0.880819C0.873092 8.19281 0.86279 8.27394 0.86279 8.35378C0.86279 12.2647 0.861503 16.1743 0.86279 20.0852C0.86279 20.8398 1.30964 21.2776 2.0707 21.2789C5.14584 21.2789 8.22098 21.2789 11.2974 21.2789C11.3888 21.2789 11.4828 21.275 11.573 21.2918C11.7945 21.3317 11.9374 21.521 11.9232 21.736C11.9091 21.9408 11.752 22.1043 11.5395 22.1288C11.4712 22.1365 11.4017 22.1327 11.3322 22.1327C8.24931 22.1327 5.16644 22.1327 2.08357 22.1327C0.824158 22.1365 0 21.3162 0 20.0658C0 14.7822 0 9.49987 0 4.21754C0 2.95426 0.825446 2.13139 2.09001 2.1301C2.71843 2.1301 3.34814 2.1301 3.97656 2.1301C4.05898 2.1301 4.14268 2.1301 4.25987 2.1301C4.25987 1.96913 4.25858 1.83392 4.25987 1.6987C4.27532 0.758649 4.99775 0.025921 5.93909 0.00402932C6.16831 -0.00112167 6.40268 -0.0075604 6.62675 0.0284965C7.47795 0.16371 8.04455 0.810159 8.08576 1.67037C8.08576 1.69355 8.08576 1.71673 8.08705 1.73991C8.09993 1.93565 8.04327 2.20736 8.14757 2.30523C8.25703 2.40696 8.5236 2.34902 8.72062 2.34902C10.669 2.3503 12.6161 2.34902 14.5644 2.34902H14.8992H14.9018ZM17.8791 2.78427C17.8791 2.43916 17.8868 2.09404 17.8778 1.75021C17.8636 1.20421 17.5159 0.868108 16.9738 0.861669C16.8669 0.861669 16.7587 0.861669 16.6519 0.861669C16.1149 0.86682 15.7633 1.19648 15.7569 1.72832C15.7479 2.42499 15.7479 3.12295 15.7569 3.81962C15.7646 4.34116 16.1059 4.67082 16.63 4.68628C16.7368 4.68885 16.845 4.68885 16.9519 4.68628C17.5262 4.67855 17.8675 4.34245 17.8778 3.77198C17.8829 3.44231 17.8778 3.11265 17.8778 2.78427H17.8791ZM5.11236 2.76367C5.11236 3.12424 5.10463 3.48352 5.11364 3.84409C5.12652 4.31669 5.44846 4.64893 5.91977 4.6837C6.04211 4.69272 6.16444 4.68885 6.28678 4.68756C6.89073 4.68241 7.22941 4.35018 7.23327 3.7488C7.23714 3.19764 7.21009 2.64391 7.23971 2.09404C7.28607 1.22224 6.96929 0.794706 5.98545 0.856518C5.47035 0.889999 5.12266 1.21065 5.11236 1.72832C5.10592 2.07344 5.11107 2.41727 5.11236 2.76238V2.76367Z" fill="#1E293B"/>
<path d="M15.6538 22.9941C15.1477 22.9941 14.6416 22.9967 14.1356 22.9941C13.7853 22.9915 13.623 22.837 13.6217 22.4919C13.6179 21.472 13.614 20.4521 13.6282 19.4335C13.6308 19.2905 13.7054 19.1128 13.8059 19.0111C15.7066 17.0962 17.6138 15.1865 19.5286 13.2832C20.215 12.6007 21.3019 12.5994 22.0011 13.269C22.4544 13.7043 22.9 14.1486 23.3352 14.6018C24.0164 15.3088 24.0164 16.3931 23.3236 17.0898C21.4216 19.0034 19.5119 20.9092 17.5957 22.8099C17.4901 22.9155 17.3021 22.9812 17.1489 22.9877C16.6518 23.0095 16.1522 22.9954 15.6538 22.9954V22.9941ZM17.5635 21.5956C18.9504 20.2061 20.3348 18.8192 21.7191 17.4336C21.4139 17.1284 21.092 16.8065 20.8099 16.5245C19.4205 17.9126 18.0297 19.2995 16.6479 20.68C16.9351 20.9672 17.248 21.2801 17.5635 21.5969V21.5956ZM15.9539 19.9769C17.3395 18.5926 18.7289 17.2044 20.1004 15.8342C19.7978 15.5303 19.481 15.2122 19.19 14.9199C17.8108 16.2978 16.42 17.6847 15.0524 19.051C15.346 19.3523 15.659 19.673 15.9551 19.9756L15.9539 19.9769ZM19.7269 14.2799C19.83 14.3482 19.9175 14.3881 19.9819 14.4525C20.6722 15.1375 21.3559 15.8304 22.05 16.5141C22.4286 16.8863 22.2934 16.9198 22.7107 16.4923C23.0738 16.1214 23.0815 15.5741 22.7287 15.2058C22.2947 14.7525 21.8492 14.3082 21.3959 13.8743C21.0778 13.5691 20.6065 13.5382 20.2536 13.7931C20.0837 13.9168 19.942 14.079 19.7282 14.2799H19.7269ZM16.7471 22.1223C15.9989 21.3715 15.2443 20.6156 14.4897 19.861V22.1223H16.7471Z" fill="#1E293B"/>
</svg>
